<svg xmlns="http://www.w3.org/2000/svg" width="0" height="0">

	<svg id="tile" viewBox="0 0 56 73">
		<style type="text/css">
			.st0{fill:url(#SVGID_1_);}
			.st1{fill:url(#SVGID_2_);}
			.st2{fill:url(#SVGID_3_);}
			.st3{fill:url(#SVGID_4_);}
			.st4{fill:#fff;}
		</style>
		<linearGradient id="SVGID_1_" gradientUnits="userSpaceOnUse" x1="27.943" y1="3.380991e-02" x2="27.943" y2="72.9662">
			<stop  offset="1.862645e-07" style="stop-color:#EFEFEF"/>
			<stop  offset="1" style="stop-color:#F0F0F0"/>
		</linearGradient>
		<path class="st0" d="M50.6,73H5.3C2.4,73,0,70.6,0,67.7V5.3C0,2.4,2.4,0,5.3,0h45.3c2.9,0,5.3,2.4,5.3,5.3v62.4
			C55.9,70.6,53.5,73,50.6,73z"/>
		<linearGradient id="SVGID_2_" gradientUnits="userSpaceOnUse" x1="27.943" y1="47.9387" x2="27.943" y2="72.9662">
			<stop  offset="1.862645e-07" style="stop-color:#E4E4E4"/>
			<stop  offset="1" style="stop-color:#D9D9D9"/>
		</linearGradient>
		<path class="st1" d="M42,47.9c-16.7,0-31.7,3.3-42,8.5v11c0,3,2.5,5.5,5.6,5.5h44.8c3.1,0,5.6-2.5,5.6-5.5V48.7
			C51.4,48.2,46.8,47.9,42,47.9z"/>
		<linearGradient id="SVGID_3_" gradientUnits="userSpaceOnUse" x1="28.0571" y1="3.380991e-02" x2="28.0571" y2="29.1896">
			<stop  offset="1.862645e-07" style="stop-color:#F1F1F1"/>
			<stop  offset="1" style="stop-color:#ebebeb"/>
		</linearGradient>
		<path class="st2" d="M50.4,0H5.7C2.6,0,0.1,2.5,0.1,5.5v22.7c4.4,0.6,9,1,13.8,1c18.4,0,34.3-4.9,42.1-12.1V5.5
			C56,2.5,53.5,0,50.4,0z"/>
		<ellipse class="st4" cx="28" cy="53" rx="9.5" ry="9.5"/>
		<radialGradient id="SVGID_4_" cx="28.0564" cy="51.9809" r="10.1021" fx="28.0438" fy="53.229" gradientTransform="matrix(1.0121 0 0 1 -0.34 0)" gradientUnits="userSpaceOnUse">
			<stop  offset="1.862645e-07" style="stop-color:#e2e2e2"/>
			<stop  offset="1" style="stop-color:#C5C5C5"/>
		</radialGradient>
		<ellipse class="st3" cx="28" cy="52" rx="9.5" ry="9.5"/>
	</svg>

	<svg id="tile-back" viewBox="0 0 56 73">
		<style type="text/css">
			.st0{fill:url(#SVGID_1_);}
			.st1{fill:url(#SVGID_2_);}
			.st2{fill:url(#SVGID_3_);}
		</style>
		<linearGradient id="SVGID_1_" gradientUnits="userSpaceOnUse" x1="27.943" y1="3.380991e-02" x2="27.943" y2="72.9662">
			<stop  offset="1.862645e-07" style="stop-color:#EFEFEF"/>
			<stop  offset="1" style="stop-color:#F0F0F0"/>
		</linearGradient>
		<path class="st0" d="M50.6,73H5.3C2.4,73,0,70.6,0,67.7V5.3C0,2.4,2.4,0,5.3,0h45.3c2.9,0,5.3,2.4,5.3,5.3v62.4
			C55.9,70.6,53.5,73,50.6,73z"/>
		<linearGradient id="SVGID_2_" gradientUnits="userSpaceOnUse" x1="27.943" y1="47.9387" x2="27.943" y2="72.9662">
			<stop  offset="1.862645e-07" style="stop-color:#E4E4E4"/>
			<stop  offset="1" style="stop-color:#D9D9D9"/>
		</linearGradient>
		<path class="st1" d="M42,47.9c-16.7,0-31.7,3.3-42,8.5v11c0,3,2.5,5.5,5.6,5.5h44.8c3.1,0,5.6-2.5,5.6-5.5V48.7
			C51.4,48.2,46.8,47.9,42,47.9z"/>
		<linearGradient id="SVGID_3_" gradientUnits="userSpaceOnUse" x1="28.0571" y1="3.380991e-02" x2="28.0571" y2="29.1896">
			<stop  offset="1.862645e-07" style="stop-color:#F1F1F1"/>
			<stop  offset="1" style="stop-color:#ebebeb"/>
		</linearGradient>
		<path class="st2" d="M50.4,0H5.7C2.6,0,0.1,2.5,0.1,5.5v22.7c4.4,0.6,9,1,13.8,1c18.4,0,34.3-4.9,42.1-12.1V5.5
			C56,2.5,53.5,0,50.4,0z"/>
	</svg>

	<svg id="tile-rings" viewBox="0 0 56 73">
		<style type="text/css">
			.st0{fill:none;stroke:#f00;stroke-width:1.5}
		</style>
		<circle class="st0" cx="28" cy="52" r="3"/>
		<circle class="st0" cx="28" cy="52" r="6"/>
		<circle class="st0" cx="28" cy="52" r="9"/>
	</svg>

	<svg id="icon-joker" viewBox="0 0 37 37">
		<style type="text/css">
			.st0{fill:url(#WMGID_1_);filter:url(#WMDS_1);}
		</style>
		<linearGradient id="WMGID_1_" gradientUnits="userSpaceOnUse" x1="0" y1="0" x2="0" y2="37">
			<stop offset="0" style="stop-color:#191"/>
			<stop offset="1" style="stop-color:#7d7"/>
		</linearGradient>
		<filter id="WMDS_1" x="0" y="0" width="200%" height="200%">
			<feDropShadow dx="0" dy="1.5" stdDeviation="0" flood-color="#efe" flood-opacity="0.9" />
			<feDropShadow dx="0" dy="-.5" stdDeviation="0" flood-color="#050" flood-opacity="0.9" />
		</filter>
		<path class="st0" d="M28.1,18.5l1.1-1c1.3-1.3,1.3-3.3,0-4.6c-1.3-1.3-3.5-1.3-4.8,0l-1.7,1.4c0.5-0.6,1-1.2,1.4-1.7c1.3-1.3,1.3-3.5,0-4.8
			c-1.3-1.3-3.3-1.3-4.6,0l-1,1.1l-1-1.1c-1.3-1.3-3.3-1.3-4.6,0s-1.3,3.5,0,4.8l1.4,1.7c-0.6-0.5-1.2-1-1.7-1.4
			c-1.3-1.3-3.5-1.3-4.8,0s-1.3,3.3,0,4.6l1.1,1l-1.1,1c-1.3,1.3-1.3,3.3,0,4.6c1.3,1.3,3.5,1.3,4.8,0l1.7-1.4c-0.5,0.6-1,1.2-1.4,1.7
			c-1.3,1.3-1.3,3.5,0,4.8s3.3,1.3,4.6,0l1-1.1l1,1.1c1.3,1.3,3.3,1.3,4.6,0c1.3-1.3,1.3-3.5,0-4.8l-1.4-1.7c0.6,0.5,1.2,1,1.7,1.4
			c1.3,1.3,3.5,1.3,4.8,0c1.3-1.3,1.3-3.3,0-4.6L28.1,18.5z"/>
	</svg>

	<svg id="user-placeholder" viewBox="0 0 74 59">
		<style type="text/css">
			.st0{fill:url(#SVGID_1_);}
			.st1{fill:#fff;}
		</style>
		<radialGradient id="SVGID_1_" cx="37" cy="29.5" r="33.4608" gradientUnits="userSpaceOnUse">
			<stop  offset="0" style="stop-color:#CFD4EF"/>
			<stop  offset="1" style="stop-color:#7F849F"/>
		</radialGradient>
		<rect y="0" class="st0" width="74" height="59"/>
		<path class="st1" d="M65.5,59h-58l1.1-1.5c1.1-1.2,2.6-2.2,4.5-2.8c5.5-2.5,7.8-2.9,10.8-3.4s3.8-1.6,4.2-4.4
			c0.4-2.8,0.7-3.1,0.7-4.5c-1.8-1.2-2.4-3.5-2.5-4.8c-0.1-1.2-0.6-2.6-0.5-3.8c-1.7,0.4-1.5-1.7-2-2.9c-0.2-0.4-1.1-3.1-1.3-4.7
			c-0.2-1.5,0.3-2.2,1.3-1.5c-0.9-2.9-0.7-5.6-0.9-7.5c-0.2-1.9-1.1-6.7,2.4-7.6c1.2-0.4,2-2.2,4.2-2.9C31.7,6,34,4.6,36.5,4.6
			c2.6,0,4.8,1.4,6.9,2.1c2.1,0.7,2.9,2.5,4.2,2.9c3.5,0.9,2.6,5.7,2.4,7.6c-0.2,1.9,0.1,4.6-0.9,7.5c1.1-0.7,1.5,0,1.3,1.5
			s-1.1,4.2-1.3,4.7c-0.5,1.2-0.3,3.3-2,2.9c0.1,1.2-0.4,2.5-0.5,3.8c-0.1,1.2-0.7,3.5-2.5,4.8c0,1.3,0.3,1.7,0.7,4.5s1.1,3.9,4.2,4.4
			c3,0.5,6.4,1.2,10.8,3.4c1.9,0.7,3.4,1.7,4.5,2.8L65.5,59z"/>
	</svg>

	<svg id="icon-slide-arrow" viewBox="0 0 18 15">
		<style type="text/css">
			.st0{fill:#333;}
		</style>
		<polygon class="st0" points="0,4 0,11 9,11 9,15 18,7.5 9,0 9,4 "/>
	</svg>

</svg>